<svg width="25" height="23" viewBox="0 0 25 23" fill="none" xmlns="http://www.w3.org/2000/svg">
<path d="M2.38076 3.90616H24.0655L20.6416 15.8877H5.80467L2.38076 3.90616ZM2.38076 3.90616L1.52478 0.910767M10.3608 9.89694H12.6434M12.6434 9.89694H14.926M12.6434 9.89694V7.50063M12.6434 9.89694V12.2933M11.5112 20.0813C11.5112 20.5579 11.3308 21.0151 11.0098 21.3521C10.6887 21.6892 10.2533 21.8785 9.79924 21.8785C9.3452 21.8785 8.90975 21.6892 8.5887 21.3521C8.26765 21.0151 8.08728 20.5579 8.08728 20.0813M18.359 20.0813C18.359 20.5579 18.1787 21.0151 17.8576 21.3521C17.5365 21.6892 17.1011 21.8785 16.6471 21.8785C16.193 21.8785 15.7576 21.6892 15.4365 21.3521C15.1155 21.0151 14.9351 20.5579 14.9351 20.0813" stroke="white" stroke-width="1.8" stroke-linecap="round" stroke-linejoin="round"/>
</svg>
